<?xml version="1.0" encoding="iso-8859-1"?>
<!-- Generator: Adobe Illustrator 19.0.0, SVG Export Plug-In . SVG Version: 6.00 Build 0)  -->
<svg version="1.1" id="Capa_1" xmlns="http://www.w3.org/2000/svg" xmlns:xlink="http://www.w3.org/1999/xlink" x="0px" y="0px"
	 viewBox="0 0 512 512" style="enable-background:new 0 0 512 512;" xml:space="preserve">
<g>
	<circle style="fill:#FCA311;" cx="256" cy="256" r="236.17"/>
	
</g>
<g>
	<path style="fill:#FFFFFF;" d="M256,373.193c-10.946,0-19.83-8.864-19.83-19.83V155.067c0-10.946,8.884-19.83,19.83-19.83
		c10.946,0,19.83,8.884,19.83,19.83v198.296C275.83,364.329,266.946,373.193,256,373.193z"/>
	<path style="fill:#FFFFFF;" d="M355.148,274.045H156.852c-10.946,0-19.83-8.884-19.83-19.83c0-10.946,8.884-19.83,19.83-19.83
		h198.296c10.966,0,19.83,8.884,19.83,19.83C374.978,265.161,366.114,274.045,355.148,274.045z"/>
</g>
<g>
</g>
<g>
</g>
<g>
</g>
<g>
</g>
<g>
</g>
<g>
</g>
<g>
</g>
<g>
</g>
<g>
</g>
<g>
</g>
<g>
</g>
<g>
</g>
<g>
</g>
<g>
</g>
<g>
</g>
</svg>
